<svg xmlns="http://www.w3.org/2000/svg" version="1.1" xmlns:xlink="http://www.w3.org/1999/xlink" xmlns:svgjs="http://svgjs.dev/svgjs" width="200" height="200" viewBox="0 0 2000 1999"><g transform="matrix(1,0,0,1,-0.431486880466764,-0.4312711370263287)"><svg viewBox="0 0 343 343" data-background-color="#ffffff" preserveAspectRatio="xMidYMid meet" height="1999" width="2000" xmlns="http://www.w3.org/2000/svg" xmlns:xlink="http://www.w3.org/1999/xlink"><g id="tight-bounds" transform="matrix(1,0,0,1,0.0740000000000407,0.07400000000001228)"><svg viewBox="0 0 342.85155851775386 342.85155851775386" height="342.85155851775386" width="342.85155851775386"><g><svg></svg></g><g><svg viewBox="0 0 342.85155851775386 342.85155851775386" height="342.85155851775386" width="342.85155851775386"><g><path d="M0 171.426c0-94.676 76.75-171.426 171.426-171.426 94.676 0 171.426 76.75 171.426 171.426 0 94.676-76.75 171.426-171.426 171.426-94.676 0-171.426-76.75-171.426-171.426zM171.426 332.6c89.014 0 161.175-72.16 161.174-161.174 0-89.014-72.16-161.175-161.174-161.175-89.014 0-161.175 72.16-161.175 161.175 0 89.014 72.16 161.175 161.175 161.174z" data-fill-palette-color="tertiary" fill="#e42222" stroke="transparent"></path><ellipse rx="164.56874808852186" ry="164.56874808852186" cx="171.42577925887693" cy="171.42577925887693" fill="#e42222" stroke="transparent" stroke-width="0" fill-opacity="1" data-fill-palette-color="tertiary"></ellipse></g><g transform="matrix(1,0,0,1,64.84655864529837,79.4750791216719)"><svg viewBox="0 0 213.1584412271571 183.90140027441007" height="183.90140027441007" width="213.1584412271571"><g><svg viewBox="0 0 213.1584412271571 183.90140027441007" height="183.90140027441007" width="213.1584412271571"><g><svg viewBox="0 0 213.1584412271571 183.90140027441007" height="183.90140027441007" width="213.1584412271571"><g><svg viewBox="0 0 213.1584412271571 183.90140027441007" height="183.90140027441007" width="213.1584412271571"><g id="textblocktransform"><svg viewBox="0 0 213.1584412271571 183.90140027441007" height="183.90140027441007" width="213.1584412271571" id="textblock"><g><svg viewBox="0 0 213.1584412271571 183.90140027441007" height="183.90140027441007" width="213.1584412271571"><g transform="matrix(1,0,0,1,0,0)"><svg width="213.1584412271571" viewBox="1.4 -25.05 30.6 26.400000000000002" height="183.90140027441007" data-palette-color="#ffffff"><path d="M8.9 1.35L8.9 1.35Q8 1.35 6.75 1.3 5.5 1.25 4.28 1 3.05 0.75 2.23 0.2 1.4-0.35 1.4-1.3L1.4-1.3Q1.4-1.9 1.7-2.55L1.7-2.55Q2.4-4 3.55-6 4.7-8 6.05-10.18 7.4-12.35 8.72-14.38 10.05-16.4 11.18-17.88 12.3-19.35 12.95-19.95L12.95-19.95Q13.15-20.1 13.4-20.15 13.65-20.2 13.85-20.2L13.85-20.2Q14.1-20.2 14.68-20.05 15.25-19.9 15.25-19.5L15.25-19.5Q15.25-19.35 15.05-19.15L15.05-19.15Q13.1-16.7 11.2-14.13 9.3-11.55 7.4-9L7.4-9Q6.35-7.5 5.25-6 4.15-4.5 3.15-2.9L3.15-2.9Q2.8-2.4 2.8-1.9L2.8-1.9Q2.8-1.25 3.48-0.78 4.15-0.3 5.85-0.3L5.85-0.3Q8.15-0.3 11.23-0.9 14.3-1.5 17.5-2.65 20.7-3.8 23.53-5.5 26.35-7.2 28.23-9.4 30.1-11.6 30.45-14.3L30.45-14.3Q30.5-14.45 30.5-14.6 30.5-14.75 30.5-14.9L30.5-14.9Q30.5-17.2 29.1-18.68 27.7-20.15 25.58-20.98 23.45-21.8 21.2-22.15 18.95-22.5 17.2-22.5L17.2-22.5Q14.3-22.5 11.58-21.8 8.85-21.1 6.1-20.2L6.1-20.2Q5.9-20.15 5.73-20.1 5.55-20.05 5.3-20.05L5.3-20.05Q4.7-20.05 4.4-20.45 4.1-20.85 4.1-21.4L4.1-21.4Q4.1-22.65 5.2-23.1L5.2-23.1Q5.65-23.3 6.2-23.4 6.75-23.5 7.25-23.65L7.25-23.65Q9.9-24.25 12.58-24.65 15.25-25.05 17.9-25.05L17.9-25.05Q20.15-25.05 22.48-24.6 24.8-24.15 26.83-23.05 28.85-21.95 30.15-20L30.15-20Q32-17.3 32-14.15L32-14.15Q32-10.5 29.98-7.6 27.95-4.7 25-2.8L25-2.8Q22.85-1.4 20.08-0.48 17.3 0.45 14.38 0.9 11.45 1.35 8.9 1.35Z" opacity="1" transform="matrix(1,0,0,1,0,0)" fill="#ffffff" class="wordmark-text-0" data-fill-palette-color="quaternary" id="text-0"></path></svg></g></svg></g></svg></g></svg></g><g></g></svg></g></svg></g></svg></g></svg></g><defs></defs></svg><rect width="342.85155851775386" height="342.85155851775386" fill="none" stroke="none" visibility="hidden"></rect></g></svg></g></svg>